<svg width="36" height="36" viewBox="0 0 36 35" fill="none" xmlns="http://www.w3.org/2000/svg">
<path d="M14.1958 3.70821C15.3932 0.0229635 20.6068 0.0229597 21.8042 3.7082L23.1638 7.89261C23.6993 9.5407 25.2351 10.6565 26.968 10.6565H31.3678C35.2427 10.6565 36.8538 15.615 33.7189 17.8926L30.1595 20.4787C28.7575 21.4973 28.1709 23.3028 28.7064 24.9509L30.066 29.1353C31.2634 32.8205 27.0455 35.885 23.9106 33.6074L20.3511 31.0213C18.9492 30.0027 17.0508 30.0027 15.6489 31.0213L12.0894 33.6074C8.95454 35.885 4.73662 32.8205 5.93402 29.1353L7.29362 24.9509C7.82911 23.3028 7.24248 21.4973 5.84054 20.4787L2.28107 17.8926C-0.853786 15.615 0.757314 10.6565 4.63221 10.6565H9.03195C10.7649 10.6565 12.3007 9.5407 12.8362 7.89261L14.1958 3.70821Z" fill="#F9DB6F"/>
</svg>
