<svg width="36" height="35" viewBox="0 0 36 35" fill="none" xmlns="http://www.w3.org/2000/svg">
<path d="M14.6713 3.86271C15.719 0.638126 20.281 0.638124 21.3287 3.86271L22.6883 8.04712C23.2907 9.90122 25.0185 11.1565 26.968 11.1565H31.3678C34.7583 11.1565 36.168 15.4952 33.425 17.4881L29.8656 20.0742C28.2884 21.2201 27.6284 23.2513 28.2309 25.1054L29.5904 29.2898C30.6382 32.5144 26.9475 35.1958 24.2045 33.2029L20.645 30.6168C19.0678 29.4709 16.9322 29.4709 15.355 30.6168L11.7955 33.2029C9.0525 35.1958 5.36182 32.5144 6.40955 29.2898L7.76915 25.1054C8.37158 23.2513 7.71162 21.2201 6.13443 20.0742L2.57496 17.4881C-0.168037 15.4952 1.24168 11.1565 4.63221 11.1565H9.03195C10.9815 11.1565 12.7093 9.90122 13.3117 8.04712L14.6713 3.86271Z" stroke="#B1B1B1"/>
</svg>
